# xmcd CD database file
#
# Track frame offsets:
#	150
#	3535
#	29862
#	36115
#	66727
#	95880
#	127822
#	154357
#	174782
#	211075
#	252582
#
# Disc length: 3683 seconds
#
# Revision: 0
# Processed by: cddbd v1.5.1PL2 Copyright (c) Steve Scherf et al.
# Submitted via: CDex 1.51
#
DISCID=9e0e610b
DTITLE=Sam Taylor - Bluzman Back Home
DYEAR=2005
DGENRE=Blues
TTITLE0=Introduction
TTITLE1=My Imagination
TTITLE2=Band Intro
TTITLE3=Someone To Hold
TTITLE4=Do You Like It
TTITLE5=Drinking Straight Tequilla
TTITLE6=Damn Your Eyes
TTITLE7=Big Buddy Shuffle
TTITLE8=Mother Blues
TTITLE9=Hey Girl
TTITLE10=Try A Little Tenderness
EXTD=YEAR: 2005
EXTT0=
EXTT1=
EXTT2=
EXTT3=
EXTT4=
EXTT5=
EXTT6=
EXTT7=
EXTT8=
EXTT9=
EXTT10=
PLAYORDER=
